<svg width="26" height="26" viewBox="0 0 26 26" fill="none" xmlns="http://www.w3.org/2000/svg">
<path d="M13 26C5.81855 26 0 20.1815 0 13C0 5.81855 5.81855 0 13 0C20.1815 0 26 5.81855 26 13C26 20.1815 20.1815 26 13 26ZM7.02944 13.8911L14.1323 20.994C14.625 21.4867 15.4218 21.4867 15.9093 20.994L16.8004 20.1028C17.2931 19.6101 17.2931 18.8133 16.8004 18.3258L11.4746 13L16.8004 7.67419C17.2931 7.18145 17.2931 6.38468 16.8004 5.89718L15.9093 5.00605C15.4165 4.51331 14.6198 4.51331 14.1323 5.00605L7.02944 12.1089C6.53669 12.6016 6.53669 13.3984 7.02944 13.8911Z" fill="#EAFB81"/>
</svg>
