<svg width="26" height="26" viewBox="0 0 26 26" fill="none" xmlns="http://www.w3.org/2000/svg">
<path d="M13 0C20.1815 0 26 5.81855 26 13C26 20.1815 20.1815 26 13 26C5.81855 26 0 20.1815 0 13C0 5.81855 5.81855 0 13 0ZM18.9706 12.1089L11.8677 5.00605C11.375 4.51331 10.5782 4.51331 10.0907 5.00605L9.1996 5.89718C8.70685 6.38992 8.70685 7.18669 9.1996 7.67419L14.5254 13L9.1996 18.3258C8.70685 18.8185 8.70685 19.6153 9.1996 20.1028L10.0907 20.994C10.5835 21.4867 11.3802 21.4867 11.8677 20.994L18.9706 13.8911C19.4633 13.3984 19.4633 12.6016 18.9706 12.1089Z" fill="#EAFB81"/>
</svg>
