<svg width="19" height="18" viewBox="0 0 19 18" fill="none" xmlns="http://www.w3.org/2000/svg">
<path d="M17.625 4.88025C17.5231 4.51667 17.3245 4.18751 17.0505 3.92775C16.7687 3.66 16.4233 3.46847 16.047 3.37125C14.6385 3 8.99547 3 8.99547 3C6.64297 2.97323 4.29105 3.09095 1.95297 3.3525C1.57662 3.45691 1.2319 3.65271 0.949475 3.9225C0.671975 4.1895 0.470975 4.51875 0.365975 4.8795C0.113744 6.2383 -0.00880638 7.618 -2.53939e-05 9C-0.00902539 10.3807 0.113225 11.76 0.365975 13.1205C0.468725 13.4797 0.668975 13.8075 0.947224 14.0722C1.22547 14.337 1.57197 14.5282 1.95297 14.6295C3.38022 15 8.99547 15 8.99547 15C11.351 15.0268 13.7059 14.9091 16.047 14.6475C16.4233 14.5503 16.7687 14.3587 17.0505 14.091C17.328 13.8262 17.5252 13.497 17.6242 13.1385C17.883 11.7802 18.0089 10.3999 18 9.01725C18.0194 7.6287 17.8938 6.24192 17.625 4.8795V4.88025ZM7.20147 11.568V6.43275L11.8965 9.00075L7.20147 11.568Z" fill="white"/>
</svg>
