<svg width="25" height="21" viewBox="0 0 25 21" fill="none" xmlns="http://www.w3.org/2000/svg">
<path d="M21.9879 4.45455L21.6525 4.69946L21.6821 5.11371C21.6957 5.30465 21.696 5.50001 21.696 5.72651C21.696 12.1773 16.7904 19.5545 7.86802 19.5545C6.15261 19.5545 4.51448 19.2455 3.0035 18.6785C4.88657 18.378 6.61393 17.6033 8.061 16.4691L9.71419 15.1734L7.61419 15.129C6.10543 15.0971 4.79042 14.3172 4.02461 13.1494C4.46706 13.1306 4.90279 13.0624 5.31188 12.9563L5.27274 11.4953C3.63038 11.1623 2.32588 9.92129 1.90713 8.31538C2.35248 8.44266 2.82072 8.51996 3.3029 8.53814L5.95749 8.6382L3.74718 7.16464C2.56765 6.37827 1.79692 5.03785 1.79692 3.52153C1.79692 3.10045 1.85471 2.69854 1.96302 2.31858C4.58548 5.07092 8.23116 6.83549 12.2704 7.04654L13.2422 7.09731L13.0438 6.14463C12.9733 5.80604 12.9327 5.4612 12.9327 5.12373C12.9327 2.7128 14.8827 0.75 17.3064 0.75C18.5678 0.75 19.704 1.27797 20.5026 2.13069L20.7853 2.43247L21.1913 2.35459C21.5787 2.28031 21.9609 2.1846 22.3357 2.06897C22.1292 2.25247 21.9047 2.41718 21.665 2.56032L22.1297 3.94999C22.3263 3.92882 22.5216 3.90182 22.7153 3.86938C22.482 4.07561 22.2392 4.27106 21.9879 4.45455Z" stroke="#EAFB81" stroke-width="1.5"/>
</svg>
