<svg width="25" height="25" viewBox="0 0 25 25" fill="none" xmlns="http://www.w3.org/2000/svg">
<path d="M23.4688 12.1094C23.4688 17.4727 19.7508 21.9691 14.7515 23.1604V16.3599H16.8228H17.4665L17.5641 15.7236L18.1012 12.2231L18.2337 11.3594H17.3599H14.7515V9.83643C14.7515 9.46674 14.8433 9.19361 14.9914 9.02234C15.1219 8.87141 15.3856 8.69531 15.9746 8.69531H17.502H18.252V7.94531V4.9668V4.33388L17.628 4.22747L17.502 4.9668C17.628 4.22747 17.628 4.22746 17.6279 4.22745L17.6277 4.22742L17.6273 4.22735L17.6261 4.22714L17.6222 4.22648L17.6084 4.22418L17.5581 4.21602C17.5148 4.20911 17.4524 4.19941 17.3739 4.18786C17.2169 4.16476 16.9944 4.13415 16.7294 4.10358C16.2026 4.04279 15.4935 3.98047 14.791 3.98047C13.256 3.98047 11.9045 4.44823 10.9359 5.41789C9.96652 6.38829 9.46729 7.77452 9.46729 9.44141V11.3594H7.14111H6.39111V12.1094V15.6099V16.3599H7.14111H9.46729V23.1604C4.46799 21.9691 0.75 17.4727 0.75 12.1094C0.75 5.83414 5.83414 0.75 12.1094 0.75C18.3846 0.75 23.4688 5.83414 23.4688 12.1094Z" stroke="#EAFB81" stroke-width="1.5"/>
</svg>
